<svg width="24" height="24" viewBox="0 0 24 24" xmlns="http://www.w3.org/2000/svg">
    <g fill="none" fill-rule="evenodd">
        <path d="M0 0h24v24H0z"/>
        <path d="M5.957 18.406c.344.336.906.336 1.234.008l4.805-4.805 4.805 4.805a.882.882 0 0 0 1.234-.008.88.88 0 0 0 .008-1.226l-4.805-4.813 4.805-4.805a.872.872 0 0 0-.008-1.226.89.89 0 0 0-1.234-.008l-4.805 4.805-4.805-4.805a.89.89 0 0 0-1.234 0c-.336.344-.328.914 0 1.234l4.805 4.805-4.805 4.813a.88.88 0 0 0 0 1.226z" fill-opacity=".8" fill="#141029" fill-rule="nonzero"/>
    </g>
</svg>
