<svg width="24" height="24" viewBox="0 0 24 24" xmlns="http://www.w3.org/2000/svg">
    <g fill="none" fill-rule="evenodd">
        <path d="M0 0h24v24H0z"/>
        <path d="M4.695 9.563h14.602a.707.707 0 1 0 0-1.414H4.695a.7.7 0 0 0-.703.703c0 .382.313.71.703.71zm0 3.515h14.602c.39 0 .71-.32.71-.703a.715.715 0 0 0-.71-.719H4.695c-.39 0-.703.32-.703.719 0 .383.313.703.703.703zm0 3.524h14.602c.39 0 .71-.32.71-.72 0-.39-.32-.702-.71-.702H4.695c-.39 0-.703.32-.703.703 0 .39.313.719.703.719z" fill="#FFF" fill-rule="nonzero"/>
    </g>
</svg>
